<svg width="20" height="21" viewBox="0 0 20 21" fill="none" xmlns="http://www.w3.org/2000/svg">
<path d="M17.0842 2.92226C16.1628 1.99619 15.0653 1.26193 13.8557 0.762315C12.6461 0.2627 11.3486 0.00772693 10.0389 0.0122666C4.55151 0.0122666 0.0791509 4.46225 0.0791509 9.92224C0.0791509 11.6722 0.541462 13.3722 1.40578 14.8722L-0.00125122 20.0122L5.27513 18.6322C6.73242 19.4222 8.37061 19.8422 10.0389 19.8422C15.5264 19.8422 19.9987 15.3922 19.9987 9.93224C19.9987 7.28224 18.9636 4.79225 17.0842 2.92226ZM10.0389 18.1622C8.55151 18.1622 7.09423 17.7622 5.81784 17.0122L5.51634 16.8322L2.38066 17.6522L3.21483 14.6122L3.01382 14.3022C2.18744 12.9892 1.74864 11.4715 1.74749 9.92224C1.74749 5.38225 5.46608 1.68226 10.0289 1.68226C12.24 1.68226 14.3204 2.54226 15.8781 4.10225C16.6495 4.86622 17.2608 5.77491 17.6765 6.77567C18.0923 7.77643 18.3043 8.84935 18.3003 9.93224C18.3204 14.4722 14.6018 18.1622 10.0389 18.1622ZM14.5817 12.0022C14.3304 11.8822 13.1043 11.2822 12.8832 11.1922C12.652 11.1122 12.4912 11.0722 12.3204 11.3122C12.1495 11.5622 11.6771 12.1222 11.5364 12.2822C11.3957 12.4522 11.245 12.4722 10.9937 12.3422C10.7425 12.2222 9.93845 11.9522 8.99372 11.1122C8.25 10.4522 7.75754 9.64224 7.60679 9.39224C7.46608 9.14224 7.58669 9.01224 7.71734 8.88224C7.82789 8.77224 7.9686 8.59224 8.0892 8.45224C8.2098 8.31224 8.26005 8.20224 8.34046 8.04224C8.42086 7.87224 8.38066 7.73224 8.32036 7.61224C8.26005 7.49224 7.75754 6.27225 7.55654 5.77225C7.35553 5.29225 7.14448 5.35225 6.99372 5.34225H6.51131C6.34046 5.34225 6.07915 5.40225 5.84799 5.65225C5.62689 5.90225 4.98367 6.50225 4.98367 7.72224C4.98367 8.94224 5.87815 10.1222 5.99875 10.2822C6.11935 10.4522 7.75754 12.9522 10.25 14.0222C10.843 14.2822 11.3053 14.4322 11.6671 14.5422C12.2601 14.7322 12.8028 14.7022 13.2349 14.6422C13.7173 14.5722 14.7123 14.0422 14.9133 13.4622C15.1244 12.8822 15.1244 12.3922 15.054 12.2822C14.9837 12.1722 14.8329 12.1222 14.5817 12.0022Z" fill="#D4D4D4"/>
</svg>
